<svg width="20" height="20" viewBox="0 0 20 20" fill="none" xmlns="http://www.w3.org/2000/svg">
<path d="M14.1667 18.3334C13.4722 18.3334 12.882 18.0903 12.3959 17.6042C11.9097 17.1181 11.6667 16.5278 11.6667 15.8334C11.6667 15.75 11.6875 15.5556 11.7292 15.25L5.87502 11.8334C5.6528 12.0417 5.39585 12.205 5.10419 12.3234C4.81252 12.4417 4.50002 12.5006 4.16669 12.5C3.47224 12.5 2.88196 12.257 2.39585 11.7709C1.90974 11.2847 1.66669 10.6945 1.66669 10C1.66669 9.30558 1.90974 8.7153 2.39585 8.22919C2.88196 7.74308 3.47224 7.50002 4.16669 7.50002C4.50002 7.50002 4.81252 7.55919 5.10419 7.67752C5.39585 7.79585 5.6528 7.95891 5.87502 8.16669L11.7292 4.75002C11.7014 4.6528 11.6842 4.55919 11.6775 4.46919C11.6709 4.37919 11.6672 4.27835 11.6667 4.16669C11.6667 3.47224 11.9097 2.88196 12.3959 2.39585C12.882 1.90974 13.4722 1.66669 14.1667 1.66669C14.8611 1.66669 15.4514 1.90974 15.9375 2.39585C16.4236 2.88196 16.6667 3.47224 16.6667 4.16669C16.6667 4.86113 16.4236 5.45141 15.9375 5.93752C15.4514 6.42363 14.8611 6.66669 14.1667 6.66669C13.8334 6.66669 13.5209 6.60752 13.2292 6.48919C12.9375 6.37085 12.6806 6.2078 12.4584 6.00002L6.60419 9.41669C6.63196 9.51391 6.64946 9.6078 6.65669 9.69835C6.66391 9.78891 6.66724 9.88946 6.66669 10C6.66613 10.1106 6.6628 10.2114 6.65669 10.3025C6.65058 10.3936 6.63308 10.4872 6.60419 10.5834L12.4584 14C12.6806 13.7917 12.9375 13.6286 13.2292 13.5109C13.5209 13.3931 13.8334 13.3339 14.1667 13.3334C14.8611 13.3334 15.4514 13.5764 15.9375 14.0625C16.4236 14.5486 16.6667 15.1389 16.6667 15.8334C16.6667 16.5278 16.4236 17.1181 15.9375 17.6042C15.4514 18.0903 14.8611 18.3334 14.1667 18.3334Z" fill="white"/>
</svg>
