<svg width="24" height="24" viewBox="0 0 24 24" fill="none" xmlns="http://www.w3.org/2000/svg">
<path d="M22.5 1.5H19.875V1.125C19.875 0.503625 19.3714 0 18.75 0C18.1286 0 17.625 0.503625 17.625 1.125V1.5H6.375V1.125C6.375 0.503625 5.87138 0 5.25 0C4.62862 0 4.125 0.503625 4.125 1.125V1.5H1.5C0.670875 1.5 0 2.17088 0 3V22.5C0 23.3291 0.670875 24 1.5 24H22.5C23.3291 24 24 23.3291 24 22.5V3C24 2.17088 23.3291 1.5 22.5 1.5ZM6.75 19.875C6.75 20.0824 6.58238 20.25 6.375 20.25H4.125C3.91762 20.25 3.75 20.0824 3.75 19.875V18C3.75 17.7926 3.91762 17.625 4.125 17.625H6.375C6.58238 17.625 6.75 17.7926 6.75 18V19.875ZM6.75 15.75C6.75 15.9574 6.58238 16.125 6.375 16.125H4.125C3.91762 16.125 3.75 15.9574 3.75 15.75V13.875C3.75 13.6676 3.91762 13.5 4.125 13.5H6.375C6.58238 13.5 6.75 13.6676 6.75 13.875V15.75ZM6.75 11.625C6.75 11.8324 6.58238 12 6.375 12H4.125C3.91762 12 3.75 11.8324 3.75 11.625V9.75C3.75 9.54263 3.91762 9.375 4.125 9.375H6.375C6.58238 9.375 6.75 9.54263 6.75 9.75V11.625ZM11.25 19.875C11.25 20.0824 11.0824 20.25 10.875 20.25H8.625C8.41763 20.25 8.25 20.0824 8.25 19.875V18C8.25 17.7926 8.41763 17.625 8.625 17.625H10.875C11.0824 17.625 11.25 17.7926 11.25 18V19.875ZM11.25 15.75C11.25 15.9574 11.0824 16.125 10.875 16.125H8.625C8.41763 16.125 8.25 15.9574 8.25 15.75V13.875C8.25 13.6676 8.41763 13.5 8.625 13.5H10.875C11.0824 13.5 11.25 13.6676 11.25 13.875V15.75ZM11.25 11.625C11.25 11.8324 11.0824 12 10.875 12H8.625C8.41763 12 8.25 11.8324 8.25 11.625V9.75C8.25 9.54263 8.41763 9.375 8.625 9.375H10.875C11.0824 9.375 11.25 9.54263 11.25 9.75V11.625ZM15.75 19.875C15.75 20.0824 15.5824 20.25 15.375 20.25H13.125C12.9176 20.25 12.75 20.0824 12.75 19.875V18C12.75 17.7926 12.9176 17.625 13.125 17.625H15.375C15.5824 17.625 15.75 17.7926 15.75 18V19.875ZM15.75 15.75C15.75 15.9574 15.5824 16.125 15.375 16.125H13.125C12.9176 16.125 12.75 15.9574 12.75 15.75V13.875C12.75 13.6676 12.9176 13.5 13.125 13.5H15.375C15.5824 13.5 15.75 13.6676 15.75 13.875V15.75ZM15.75 11.625C15.75 11.8324 15.5824 12 15.375 12H13.125C12.9176 12 12.75 11.8324 12.75 11.625V9.75C12.75 9.54263 12.9176 9.375 13.125 9.375H15.375C15.5824 9.375 15.75 9.54263 15.75 9.75V11.625ZM20.25 15.75C20.25 15.9574 20.0824 16.125 19.875 16.125H17.625C17.4176 16.125 17.25 15.9574 17.25 15.75V13.875C17.25 13.6676 17.4176 13.5 17.625 13.5H19.875C20.0824 13.5 20.25 13.6676 20.25 13.875V15.75ZM20.25 11.625C20.25 11.8324 20.0824 12 19.875 12H17.625C17.4176 12 17.25 11.8324 17.25 11.625V9.75C17.25 9.54263 17.4176 9.375 17.625 9.375H19.875C20.0824 9.375 20.25 9.54263 20.25 9.75V11.625ZM23.25 5.625H0.75V3C0.75 2.586 1.086 2.25 1.5 2.25H4.125V3.75C4.125 4.37138 4.62862 4.875 5.25 4.875C5.87138 4.875 6.375 4.37138 6.375 3.75V2.25H17.625V3.75C17.625 4.37138 18.1286 4.875 18.75 4.875C19.3714 4.875 19.875 4.37138 19.875 3.75V2.25H22.5C22.914 2.25 23.25 2.586 23.25 3V5.625Z" fill="#B39C74"/>
</svg>
