<svg width="22" height="24" viewBox="0 0 22 24" fill="none" xmlns="http://www.w3.org/2000/svg">
<path d="M16.0643 16.6423C15.1292 16.2927 13.7657 15.2718 13.7657 14.6362C13.7657 14.2151 13.7657 13.6891 13.7657 12.968C14.3061 12.3668 14.717 11.1463 14.9612 9.76274C15.5308 9.55939 15.8563 9.23394 16.2629 7.81002C16.6952 6.29324 15.612 6.3448 15.612 6.3448C16.4881 3.4445 15.3349 0.718767 13.4031 0.918876C12.0706 -1.41222 7.60762 1.45138 6.20924 1.25178C6.20924 2.05124 6.54215 2.65063 6.54215 2.65063C6.05605 3.5736 6.24355 5.41395 6.38005 6.3448C6.30112 6.34339 5.32157 6.35361 5.73707 7.81002C6.14376 9.23389 6.46921 9.55939 7.03888 9.76274C7.28263 11.1463 7.69349 12.3668 8.23438 12.968C8.23438 13.6891 8.23438 14.2151 8.23438 14.6362C8.23438 15.2718 6.7859 16.3424 5.93582 16.6423C4.17946 17.2607 -0.136369 19.0393 0.142209 22.3709C0.209006 23.1704 4.60518 24 11 24C17.3944 24 21.7911 23.1704 21.8579 22.3709C22.1364 19.0361 17.8095 17.2951 16.0643 16.6423Z" fill="#B39C74"/>
</svg>
