<svg width="24" height="24" viewBox="0 0 24 24" fill="none" xmlns="http://www.w3.org/2000/svg">
<path d="M5.1459 10.1468C5.1023 9.78028 4.97229 9.43998 4.77627 9.14717L22.3358 3.28432L21.4141 0.523477C21.2801 0.122274 20.8461 -0.0942434 20.4451 0.0395772L1.34425 6.41703C0.943312 6.55086 0.726361 6.98476 0.860355 7.38596L1.31233 8.73948C0.861133 9.15841 0.578094 9.75606 0.578094 10.4189C0.578094 11.2774 1.05265 12.0267 1.75298 12.4195V23.2341C1.75298 23.6572 2.09614 24 2.51888 24H22.6562C23.0788 24 23.422 23.6571 23.422 23.2341V10.1468H5.1459ZM16.3378 2.31176L18.6626 1.53557L18.1031 3.79676L15.7784 4.57296L16.3378 2.31176ZM10.5941 4.22945L12.919 3.45326L12.3596 5.71437L10.0348 6.49065L10.5941 4.22945ZM2.87026 11.5868C2.2265 11.5868 1.70264 11.063 1.70264 10.419C1.70264 9.77509 2.2265 9.25123 2.87026 9.25123C3.51419 9.25123 4.03805 9.77509 4.03805 10.419C4.03805 11.063 3.51419 11.5868 2.87026 11.5868ZM4.85058 6.14714L7.17553 5.37095L6.61611 7.63215L4.29116 8.40843L4.85058 6.14714ZM7.13444 12.7326H4.68346L5.93014 10.765H8.38113L7.13444 12.7326ZM11.9854 10.765H14.4364L13.1897 12.7326H10.7387L11.9854 10.765ZM11.3837 20.274V15.0838L15.5171 17.6789L11.3837 20.274ZM19.2449 12.7326H16.7939L18.0406 10.765H20.4916L19.2449 12.7326Z" fill="#B39C74"/>
</svg>
