<svg width="24" height="24" viewBox="0 0 24 24" fill="none" xmlns="http://www.w3.org/2000/svg">
<path d="M23.25 7.9305C23.25 5.022 20.892 2.66475 17.9842 2.66475C15.7762 2.66475 13.8885 4.02525 13.1059 5.95237C12.6176 3.00225 10.062 0.75 6.97312 0.75C3.53662 0.75 0.75 3.53662 0.75 6.97312C0.75 10.2994 3.36112 13.008 6.64387 13.1801C6.5505 13.3282 6.49425 13.4989 6.49425 13.6755V16.7865L3.14325 15.1114V22.2926L6.52612 20.601C6.63112 21.0049 7.00612 21.3345 7.452 21.3345H10.3241V23.25H14.6329V21.3349H17.0265C17.5515 21.3349 17.9839 20.877 17.9839 20.3779V16.0691L20.3775 16.5476V13.1966L17.9839 13.6751C17.9839 13.5019 17.9291 13.3354 17.8395 13.1891C17.8879 13.1906 17.9347 13.1966 17.9839 13.1966C20.892 13.1966 23.25 10.839 23.25 7.9305ZM22.2638 8.69738C22.2559 9.01232 22.1253 9.31172 21.8997 9.53169C21.6742 9.75166 21.3717 9.87478 21.0566 9.87478C20.7416 9.87478 20.439 9.75166 20.2135 9.53169C19.988 9.31172 19.8574 9.01232 19.8495 8.69738C19.8574 8.38244 19.988 8.08303 20.2135 7.86306C20.439 7.64309 20.7416 7.51997 21.0566 7.51997C21.3717 7.51997 21.6742 7.64309 21.8997 7.86306C22.1253 8.08303 22.2559 8.38244 22.2638 8.69738ZM19.8499 4.0605C20.0083 4.0605 20.1652 4.09171 20.3116 4.15234C20.458 4.21298 20.591 4.30185 20.703 4.41389C20.8151 4.52593 20.904 4.65894 20.9646 4.80533C21.0252 4.95172 21.0564 5.10861 21.0564 5.26706C21.0564 5.42551 21.0252 5.58241 20.9646 5.72879C20.904 5.87518 20.8151 6.00819 20.703 6.12023C20.591 6.23227 20.458 6.32115 20.3116 6.38178C20.1652 6.44242 20.0083 6.47363 19.8499 6.47363C19.5299 6.47363 19.2231 6.34653 18.9968 6.12029C18.7706 5.89405 18.6435 5.5872 18.6435 5.26725C18.6434 5.10878 18.6745 4.95185 18.7351 4.80542C18.7957 4.65899 18.8846 4.52593 18.9966 4.41386C19.1086 4.30179 19.2417 4.2129 19.3881 4.15227C19.5345 4.09163 19.6914 4.06045 19.8499 4.0605ZM19.0635 8.11312C19.0635 8.19319 19.0317 8.26997 18.9751 8.32658C18.9185 8.3832 18.8417 8.415 18.7616 8.415C18.6816 8.415 18.6048 8.3832 18.5482 8.32658C18.4916 8.26997 18.4598 8.19319 18.4598 8.11312C18.4598 8.03306 18.4916 7.95628 18.5482 7.89967C18.6048 7.84305 18.6816 7.81125 18.7616 7.81125C18.8417 7.81125 18.9185 7.84305 18.9751 7.89967C19.0317 7.95628 19.0635 8.03306 19.0635 8.11312ZM18.4601 6.95362C18.4998 6.95365 18.539 6.96148 18.5756 6.97668C18.6122 6.99187 18.6455 7.01413 18.6735 7.04217C18.7015 7.07022 18.7238 7.10352 18.7389 7.14015C18.7541 7.17678 18.7618 7.21604 18.7618 7.25569C18.7618 7.29533 18.754 7.33458 18.7388 7.3712C18.7236 7.40781 18.7013 7.44108 18.6733 7.46909C18.6452 7.4971 18.6119 7.51932 18.5753 7.53447C18.5387 7.54962 18.4994 7.5574 18.4598 7.55737C18.3797 7.55733 18.3029 7.52547 18.2463 7.46883C18.1898 7.41218 18.158 7.33537 18.1581 7.25531C18.1581 7.17525 18.19 7.09849 18.2466 7.04191C18.3033 6.98533 18.3801 6.95358 18.4601 6.95362ZM17.9936 8.415C18.0534 8.415 18.1119 8.43275 18.1616 8.46599C18.2113 8.49924 18.2501 8.54648 18.2729 8.60176C18.2958 8.65703 18.3017 8.71784 18.29 8.77649C18.2783 8.83514 18.2494 8.889 18.2071 8.93124C18.1647 8.97348 18.1108 9.00221 18.0521 9.01378C17.9934 9.02536 17.9327 9.01927 17.8774 8.99628C17.8222 8.97329 17.7751 8.93443 17.7419 8.88462C17.7088 8.83482 17.6912 8.77631 17.6914 8.7165C17.6916 8.63647 17.7235 8.55978 17.7802 8.50326C17.8368 8.44674 17.9136 8.415 17.9936 8.415ZM17.829 7.2555C17.8291 7.29509 17.8214 7.33432 17.8063 7.37094C17.7913 7.40755 17.7691 7.44085 17.7412 7.46891C17.7133 7.49698 17.6801 7.51927 17.6436 7.53451C17.607 7.54976 17.5678 7.55765 17.5282 7.55775C17.4887 7.55785 17.4494 7.55015 17.4128 7.53509C17.3762 7.52003 17.3429 7.4979 17.3148 7.46997C17.2868 7.44205 17.2645 7.40886 17.2492 7.37232C17.234 7.33578 17.2261 7.29659 17.226 7.257C17.2258 7.17704 17.2574 7.10027 17.3138 7.04359C17.3702 6.9869 17.4468 6.95495 17.5267 6.95475C17.6067 6.95455 17.6835 6.98612 17.7402 7.04253C17.7968 7.09893 17.8288 7.17554 17.829 7.2555ZM17.5267 8.11312C17.5268 8.15274 17.519 8.19198 17.5039 8.22859C17.4887 8.2652 17.4665 8.29847 17.4385 8.32651C17.4105 8.35454 17.3773 8.37678 17.3407 8.39196C17.3041 8.40715 17.2649 8.41498 17.2253 8.415C17.1856 8.41502 17.1464 8.40725 17.1098 8.39211C17.0732 8.37697 17.0399 8.35477 17.0119 8.32677C16.9838 8.29877 16.9616 8.26553 16.9464 8.22894C16.9312 8.19234 16.9234 8.15312 16.9234 8.1135C16.9233 8.03349 16.9551 7.95673 17.0116 7.90012C17.0681 7.84351 17.1449 7.81167 17.2249 7.81162C17.3049 7.81157 17.3816 7.84331 17.4383 7.89985C17.4949 7.9564 17.5267 8.03311 17.5267 8.11312ZM9.1785 2.39925C9.36913 2.3939 9.55889 2.42682 9.73658 2.49607C9.91426 2.56532 10.0763 2.6695 10.213 2.80244C10.3497 2.93538 10.4584 3.09438 10.5326 3.27005C10.6068 3.44572 10.6451 3.63449 10.6451 3.82519C10.6451 4.01589 10.6068 4.20466 10.5326 4.38032C10.4584 4.55599 10.3497 4.715 10.213 4.84794C10.0763 4.98088 9.91426 5.08505 9.73658 5.15431C9.55889 5.22356 9.36913 5.25648 9.1785 5.25113C8.80725 5.2407 8.45471 5.08589 8.1958 4.81961C7.9369 4.55333 7.79206 4.19658 7.79206 3.82519C7.79206 3.45379 7.9369 3.09704 8.1958 2.83076C8.45471 2.56448 8.80725 2.40968 9.1785 2.39925ZM8.24887 7.18913C8.24467 7.28088 8.20526 7.36748 8.13884 7.43092C8.07242 7.49436 7.9841 7.52977 7.89225 7.52977C7.8004 7.52977 7.71208 7.49436 7.64566 7.43092C7.57925 7.36748 7.53983 7.28088 7.53562 7.18913C7.53562 7.09454 7.5732 7.00383 7.64008 6.93695C7.70696 6.87007 7.79767 6.8325 7.89225 6.8325C7.98683 6.8325 8.07754 6.87007 8.14442 6.93695C8.2113 7.00383 8.24887 7.09454 8.24887 7.18913ZM7.53562 5.81888C7.63026 5.81902 7.72095 5.85676 7.78776 5.92378C7.85457 5.9908 7.89202 6.08162 7.89188 6.17625C7.89173 6.27088 7.85399 6.36158 7.78697 6.42839C7.71995 6.4952 7.62913 6.53265 7.5345 6.5325C7.43987 6.53235 7.34917 6.49462 7.28236 6.42759C7.21555 6.36057 7.1781 6.26976 7.17825 6.17512C7.1784 6.08049 7.21614 5.9898 7.28316 5.92299C7.35018 5.85618 7.44099 5.81873 7.53562 5.81888ZM6.98475 7.54537C7.03156 7.5455 7.07788 7.55484 7.12108 7.57287C7.16428 7.59089 7.2035 7.61725 7.23652 7.65044C7.26953 7.68362 7.29568 7.72298 7.31348 7.76628C7.33128 7.80957 7.34037 7.85594 7.34025 7.90275C7.34013 7.94956 7.33079 7.99588 7.31276 8.03908C7.29473 8.08228 7.26837 8.1215 7.23519 8.15451C7.202 8.18753 7.16264 8.21368 7.11935 8.23148C7.07606 8.24928 7.02968 8.25837 6.98287 8.25825C6.88834 8.258 6.79778 8.22021 6.73111 8.15319C6.66444 8.08617 6.62713 7.99541 6.62738 7.90088C6.62762 7.80634 6.66542 7.71578 6.73244 7.64911C6.79946 7.58244 6.89022 7.54513 6.98475 7.54537ZM6.78975 6.1755C6.79122 6.22333 6.78307 6.27097 6.76576 6.31559C6.74846 6.3602 6.72236 6.40089 6.68902 6.43521C6.65568 6.46954 6.61578 6.49682 6.57168 6.51542C6.52759 6.53402 6.48021 6.54357 6.43236 6.54349C6.3845 6.54342 6.33715 6.53372 6.29312 6.51498C6.24909 6.49624 6.20927 6.46884 6.17604 6.43441C6.14281 6.39997 6.11684 6.35921 6.09967 6.31454C6.08251 6.26987 6.0745 6.2222 6.07612 6.17438C6.07927 6.08175 6.11832 5.99397 6.18501 5.92961C6.2517 5.86525 6.3408 5.82935 6.43348 5.82949C6.52616 5.82964 6.61516 5.86582 6.68164 5.93039C6.74813 5.99497 6.7869 6.08286 6.78975 6.1755ZM6.4335 7.18913C6.4305 7.28176 6.39159 7.36959 6.325 7.43405C6.25841 7.49851 6.16937 7.53456 6.07669 7.53456C5.98401 7.53456 5.89496 7.49851 5.82837 7.43405C5.76179 7.36959 5.72288 7.28176 5.71988 7.18913C5.71987 7.09449 5.75747 7.00374 5.82438 6.93682C5.8913 6.8699 5.98206 6.83231 6.07669 6.83231C6.17132 6.83231 6.26208 6.8699 6.32899 6.93682C6.39591 7.00374 6.4335 7.09449 6.4335 7.18913ZM3.342 9.30562C2.96377 9.30562 2.60103 9.15537 2.33358 8.88792C2.06613 8.62047 1.91588 8.25773 1.91588 7.8795C1.91588 7.50127 2.06613 7.13853 2.33358 6.87108C2.60103 6.60363 2.96377 6.45337 3.342 6.45337C3.72023 6.45337 4.08297 6.60363 4.35042 6.87108C4.61787 7.13853 4.76813 7.50127 4.76813 7.8795C4.76813 8.25773 4.61787 8.62047 4.35042 8.88792C4.08297 9.15537 3.72023 9.30562 3.342 9.30562ZM3.342 3.82538C3.342 3.44709 3.49227 3.08431 3.75976 2.81682C4.02724 2.54933 4.39003 2.39906 4.76831 2.39906C5.14659 2.39906 5.50938 2.54933 5.77687 2.81682C6.04435 3.08431 6.19462 3.44709 6.19462 3.82538C6.19462 4.20366 6.04435 4.56644 5.77687 4.83393C5.50938 5.10142 5.14659 5.25169 4.76831 5.25169C4.39003 5.25169 4.02724 5.10142 3.75976 4.83393C3.49227 4.56644 3.342 4.20366 3.342 3.82538ZM6.97312 12.1579C6.78579 12.1578 6.60031 12.1209 6.42726 12.0491C6.2542 11.9774 6.09697 11.8723 5.96455 11.7398C5.83212 11.6073 5.72709 11.45 5.65544 11.2769C5.5838 11.1038 5.54695 10.9183 5.547 10.731C5.54705 10.5437 5.584 10.3582 5.65573 10.1851C5.72746 10.0121 5.83258 9.85485 5.96508 9.72242C6.09757 9.58999 6.25486 9.48496 6.42795 9.41332C6.60104 9.34167 6.78654 9.30483 6.97388 9.30487C7.35221 9.30497 7.715 9.45536 7.98245 9.72295C8.2499 9.99054 8.4001 10.3534 8.4 10.7318C8.3999 11.1101 8.24951 11.4729 7.98192 11.7403C7.71433 12.0078 7.35146 12.158 6.97312 12.1579ZM10.6046 6.45337C10.9829 6.45347 11.3456 6.60375 11.6131 6.87116C11.8806 7.13858 12.0309 7.50126 12.0311 7.8795C12.0311 8.25783 11.8808 8.62067 11.6133 8.88819C11.3458 9.15571 10.983 9.306 10.6046 9.306C10.2263 9.306 9.86346 9.15571 9.59594 8.88819C9.32842 8.62067 9.17813 8.25783 9.17813 7.8795C9.17822 7.50123 9.32856 7.13849 9.59607 6.87105C9.86358 6.60362 10.2264 6.45337 10.6046 6.45337ZM9.36788 12.7178C10.1708 12.3809 10.8943 11.8797 11.4918 11.2463C12.0894 10.613 12.5477 9.86162 12.8374 9.0405C13.1903 10.6819 14.3081 12.0356 15.7991 12.7178H9.36788ZM14.9115 9.90487C14.5914 9.90487 14.2845 9.77774 14.0582 9.55143C13.8319 9.32512 13.7048 9.01818 13.7048 8.69812C13.7048 8.37807 13.8319 8.07113 14.0582 7.84482C14.2845 7.61851 14.5914 7.49137 14.9115 7.49137C15.2316 7.49137 15.5385 7.61851 15.7648 7.84482C15.9911 8.07113 16.1182 8.37807 16.1182 8.69812C16.1182 9.01818 15.9911 9.32512 15.7648 9.55143C15.5385 9.77774 15.2316 9.90487 14.9115 9.90487ZM14.9115 5.26688C14.9115 5.10836 14.9426 4.95138 15.0033 4.80493C15.0639 4.65847 15.1529 4.5254 15.265 4.41333C15.3771 4.30126 15.5102 4.21238 15.6566 4.15178C15.8031 4.09117 15.9601 4.06003 16.1186 4.06012C16.4386 4.06012 16.7455 4.18724 16.9718 4.41352C17.1981 4.63979 17.3252 4.94669 17.3252 5.26669C17.3252 5.58669 17.1981 5.89358 16.9718 6.11986C16.7455 6.34613 16.4386 6.47325 16.1186 6.47325C15.9601 6.47345 15.8031 6.44238 15.6566 6.38184C15.5101 6.32129 15.377 6.23245 15.2649 6.1204C15.1528 6.00834 15.0638 5.87528 15.0032 5.72882C14.9426 5.58237 14.9114 5.42539 14.9115 5.26688ZM16.7771 11.1112C16.7771 10.9528 16.8084 10.7958 16.869 10.6494C16.9297 10.503 17.0186 10.37 17.1307 10.2579C17.2428 10.1459 17.3759 10.0571 17.5224 9.99649C17.6688 9.93591 17.8258 9.90478 17.9842 9.90487C18.2229 9.90495 18.4562 9.9758 18.6546 10.1085C18.853 10.2411 19.0076 10.4296 19.0989 10.6502C19.1902 10.8707 19.214 11.1133 19.1674 11.3474C19.1207 11.5815 19.0057 11.7965 18.8369 11.9652C18.6681 12.1339 18.453 12.2488 18.2189 12.2953C17.9848 12.3418 17.7422 12.3178 17.5217 12.2264C17.3012 12.135 17.1128 11.9802 16.9803 11.7817C16.8478 11.5833 16.7771 11.3499 16.7771 11.1112Z" fill="#B39C74"/>
</svg>
