<svg width="20" height="20" viewBox="0 0 20 20" fill="none" xmlns="http://www.w3.org/2000/svg">
<path d="M17.7529 1.21795L18.2328 1.69273C18.8942 2.34776 18.7941 3.50896 18.0075 4.28631L8.10981 14.0772L4.90306 15.2376C4.50039 15.3841 4.10829 15.1942 4.02857 14.8152C4.00171 14.6777 4.01439 14.5355 4.06517 14.4048L5.26099 11.2052L15.131 1.44085C15.9176 0.6635 17.0915 0.562911 17.7529 1.21795ZM7.67785 2.19165C7.78468 2.19165 7.89046 2.21246 7.98916 2.2529C8.08786 2.29334 8.17754 2.35262 8.25307 2.42734C8.32861 2.50207 8.38853 2.59078 8.42942 2.68841C8.4703 2.78604 8.49134 2.89068 8.49134 2.99636C8.49134 3.10204 8.4703 3.20668 8.42942 3.30431C8.38853 3.40194 8.32861 3.49065 8.25307 3.56538C8.17754 3.6401 8.08786 3.69938 7.98916 3.73982C7.89046 3.78026 7.78468 3.80107 7.67785 3.80107H4.42392C3.99242 3.80107 3.57859 3.97064 3.27348 4.27246C2.96836 4.57429 2.79695 4.98365 2.79695 5.4105V15.067C2.79695 15.4939 2.96836 15.9032 3.27348 16.2051C3.57859 16.5069 3.99242 16.6765 4.42392 16.6765H14.1857C14.6172 16.6765 15.0311 16.5069 15.3362 16.2051C15.6413 15.9032 15.8127 15.4939 15.8127 15.067V11.8482C15.8127 11.6348 15.8984 11.4301 16.051 11.2792C16.2035 11.1283 16.4104 11.0435 16.6262 11.0435C16.8419 11.0435 17.0488 11.1283 17.2014 11.2792C17.354 11.4301 17.4397 11.6348 17.4397 11.8482V15.067C17.4397 15.9207 17.0968 16.7395 16.4866 17.3431C15.8764 17.9468 15.0487 18.2859 14.1857 18.2859H4.42392C3.56092 18.2859 2.73327 17.9468 2.12304 17.3431C1.51281 16.7395 1.16998 15.9207 1.16998 15.067V5.4105C1.16998 4.5568 1.51281 3.73808 2.12304 3.13443C2.73327 2.53078 3.56092 2.19165 4.42392 2.19165H7.67785Z" fill="white"/>
</svg>
